<?xml version="1.0" encoding="UTF-8" standalone="no"?>
<!DOCTYPE svg PUBLIC "-//W3C//DTD SVG 1.1//EN" "http://www.w3.org/Graphics/SVG/1.1/DTD/svg11.dtd">
<svg width="100%" height="100%" viewBox="0 0 827 777" version="1.1" xmlns="http://www.w3.org/2000/svg" xmlns:xlink="http://www.w3.org/1999/xlink" xml:space="preserve" xmlns:serif="http://www.serif.com/" style="fill-rule:evenodd;clip-rule:evenodd;stroke-linejoin:round;stroke-miterlimit:2;">
    <g transform="matrix(1,0,0,1,-148.107,-240.629)">
        <g transform="matrix(0.720922,-0.416225,0.5,0.866025,-301.458,205.146)">
            <path d="M643.276,415.061L713.351,539.449L839.389,450.362L842.834,578.883L1012.01,527.36L941.935,651.748L1116.73,654.281L995.569,746.95L1164.75,798.473L995.569,849.996L1116.73,942.666L941.935,945.199L1012.01,1069.59L842.834,1018.06L839.389,1146.59L713.351,1057.5L643.276,1181.88L573.2,1057.5L447.163,1146.59L443.718,1018.06L274.541,1069.59L344.616,945.199L169.817,942.666L290.983,849.996L121.806,798.473L290.983,746.95L169.817,654.281L344.616,651.748L274.541,527.36L443.718,578.883L447.163,450.362L573.2,539.449L643.276,415.061Z" style="fill:rgb(255,255,113);"/>
        </g>
    </g>
</svg>
